<?xml version="1.0" encoding="UTF-8" standalone="no"?>
<svg
   xmlns:dc="http://purl.org/dc/elements/1.1/"
   xmlns:cc="http://creativecommons.org/ns#"
   xmlns:rdf="http://www.w3.org/1999/02/22-rdf-syntax-ns#"
   xmlns:svg="http://www.w3.org/2000/svg"
   xmlns="http://www.w3.org/2000/svg"
   width="210mm"
   height="297mm"
   viewBox="0 0 744.09448819 1052.3622047"
   id="svg2"
   version="1.1">
  <defs
     id="defs4">
    <clipPath
       clipPathUnits="userSpaceOnUse"
       id="clipPath4636">
      <rect
         style="fill:#a8da64;fill-opacity:1;stroke-width:10;stroke-miterlimit:4;stroke-dasharray:none"
         id="rect4638"
         width="128"
         height="128"
         x="5265.1543"
         y="1626.786" />
    </clipPath>
    <clipPath
       id="clipPath4908"
       clipPathUnits="userSpaceOnUse">
      <rect
         style="fill:#a8da64;fill-opacity:1;stroke-width:10;stroke-miterlimit:4;stroke-dasharray:none"
         id="rect4910"
         width="128"
         height="128"
         x="5234.7534"
         y="1652.3845" />
    </clipPath>
    <clipPath
       clipPathUnits="userSpaceOnUse"
       id="clipPath5346">
      <rect
         style="fill:#a8da64;fill-opacity:1;stroke-width:10;stroke-miterlimit:4;stroke-dasharray:none"
         id="rect5348"
         width="128"
         height="128"
         x="5249.5605"
         y="1652.8674" />
    </clipPath>
    <clipPath
       clipPathUnits="userSpaceOnUse"
       id="clipPath5378">
      <rect
         style="fill:#a8da64;fill-opacity:1;stroke-width:10;stroke-miterlimit:4;stroke-dasharray:none"
         id="rect5380"
         width="128"
         height="128"
         x="5249.5605"
         y="1652.8674" />
    </clipPath>
    <clipPath
       clipPathUnits="userSpaceOnUse"
       id="clipPath5394">
      <rect
         style="fill:#a8da64;fill-opacity:1;stroke-width:10;stroke-miterlimit:4;stroke-dasharray:none"
         id="rect5396"
         width="128"
         height="128"
         x="5249.5605"
         y="1652.8674" />
    </clipPath>
    <clipPath
       clipPathUnits="userSpaceOnUse"
       id="clipPath5394-7">
      <rect
         style="fill:#a8da64;fill-opacity:1;stroke-width:10;stroke-miterlimit:4;stroke-dasharray:none"
         id="rect5396-9"
         width="128"
         height="128"
         x="5249.5605"
         y="1652.8674" />
    </clipPath>
    <clipPath
       id="clipPath6043"
       clipPathUnits="userSpaceOnUse">
      <rect
         style="fill:#38b2ce;fill-opacity:1;stroke-width:10;stroke-miterlimit:4;stroke-dasharray:none"
         id="rect6045"
         width="128"
         height="128"
         x="5249.5605"
         y="1652.8674" />
    </clipPath>
    <clipPath
       id="clipPath6043-3"
       clipPathUnits="userSpaceOnUse">
      <rect
         style="fill:#38b2ce;fill-opacity:1;stroke-width:10;stroke-miterlimit:4;stroke-dasharray:none"
         id="rect6045-6"
         width="128"
         height="128"
         x="5249.5605"
         y="1652.8674" />
    </clipPath>
    <clipPath
       id="clipPath6043-3-3"
       clipPathUnits="userSpaceOnUse">
      <rect
         style="fill:#38b2ce;fill-opacity:1;stroke-width:10;stroke-miterlimit:4;stroke-dasharray:none"
         id="rect6045-6-6"
         width="128"
         height="128"
         x="5249.5605"
         y="1652.8674" />
    </clipPath>
  </defs>
  <metadata
     id="metadata7">
    <rdf:RDF>
      <cc:Work
         rdf:about="">
        <dc:format>image/svg+xml</dc:format>
        <dc:type
           rdf:resource="http://purl.org/dc/dcmitype/StillImage" />
        <dc:title></dc:title>
      </cc:Work>
    </rdf:RDF>
  </metadata>
  <g
     style="display:inline"
     id="layer1">
    <rect
       y="924.36206"
       x="0"
       height="128"
       width="128"
       id="rect4359"
       style="display:inline;fill:#3f51b5;fill-opacity:1;stroke-width:10;stroke-miterlimit:4;stroke-dasharray:none" />
    <g
       clip-path="url(#clipPath6043-3-3)"
       id="g5928"
       style="font-style:normal;font-variant:normal;font-weight:bold;font-stretch:normal;font-size:medium;line-height:125%;font-family:'Noto Sans UI';-inkscape-font-specification:'Noto Sans UI Bold';letter-spacing:0px;word-spacing:0px;display:inline;opacity:0.35;fill-opacity:1"
       transform="translate(-5249.5605,-728.50523)">
      <path
         style=""
         id="path5930"
         d="m 5309.9277,1715.1877 c 3.724,0 6.5105,-0.7292 8.3594,-2.1875 l 122.1173,122.1173 c -1.8489,1.4583 -4.6354,2.1875 -8.3594,2.1875 z" />
      <path
         style=""
         id="path5932"
         d="m 5318.2871,1713.0002 c 1.8489,-1.4843 2.7734,-3.6328 2.7734,-6.4453 l 122.1173,122.1173 c 0,2.8125 -0.9245,4.961 -2.7734,6.4453 z" />
      <path
         style=""
         id="path5934"
         d="m 5321.0605,1706.5549 c 0,-2.6444 -0.678,-4.6447 -2.0341,-6.0008 l 122.1174,122.1174 c 1.356,1.3561 2.034,3.3564 2.034,6.0007 z" />
      <path
         style=""
         id="path5936"
         d="m 5319.0264,1700.5541 c -0.099,-0.1 -0.2027,-0.1956 -0.3096,-0.2882 l 122.1173,122.1173 c 0.1069,0.093 0.2101,0.1887 0.3097,0.2883 z" />
      <path
         style=""
         id="path5938"
         d="m 5318.7168,1700.2659 c -1.5365,-1.3542 -3.9583,-2.0313 -7.2656,-2.0313 l 122.1173,122.1173 c 3.3073,0 5.7291,0.6771 7.2656,2.0313 z" />
      <path
         style=""
         id="path5940"
         d="m 5311.4512,1698.2346 c -7.7059,0.2943 -9.019,11.347 -4.9182,15.4478 l 122.1173,122.1173 c -4.1008,-4.1008 -2.7876,-15.1535 4.9182,-15.4478 z" />
      <path
         style=""
         id="path5942"
         d="m 5306.533,1713.6824 c 0.8835,0.8835 2.0183,1.4443 3.3947,1.5053 l 122.1173,122.1173 c -1.3763,-0.061 -2.5112,-0.6218 -3.3947,-1.5053 z" />
      <path
         style=""
         id="path5944"
         d="m 5333.2871,1706.1252 c 0,6.1459 -1.9325,10.84 -5.7812,14.1016 l 122.1173,122.1173 c 3.8487,-3.2616 5.7812,-7.9557 5.7812,-14.1016 z" />
      <path
         style=""
         id="path5946"
         d="m 5327.5059,1720.2268 c -3.8336,3.2488 -6.7206,4.2641 -13.8039,4.2641 l 122.1173,122.1173 c 7.0833,0 9.9703,-1.0153 13.8039,-4.2641 z" />
      <path
         style=""
         id="path5948"
         d="m 5313.702,1724.4909 c -1.7318,0 -6.9169,-0.8947 -7.7586,0.6187 l 122.1173,122.1173 c 0.8417,-1.5134 6.0268,-0.6187 7.7586,-0.6187 z" />
      <path
         style=""
         id="path5950"
         d="m 5305.9434,1725.1096 c -1.3147,2.3639 0.4507,18.1498 0,20.3125 l 122.1173,122.1173 c 0.4507,-2.1627 -1.3147,-17.9486 0,-20.3125 z" />
      <path
         style=""
         id="path5952"
         d="m 5305.9434,1745.4221 c -0.704,3.378 -9.0128,3.9301 -11.4448,1.498 l 122.1173,122.1173 c 2.4321,2.4321 10.7409,1.88 11.4448,-1.498 z" />
      <path
         style=""
         id="path5954"
         d="m 5294.4986,1746.9201 c -0.413,-0.413 -0.6566,-0.9121 -0.6646,-1.498 l 122.1173,122.1173 c 0.01,0.586 0.2516,1.085 0.6646,1.498 z" />
      <path
         style=""
         id="path5956"
         d="m 5293.834,1745.4221 c -0.2057,-15.0233 -0.7512,-36.2074 1.125,-52.9844 l 122.1173,122.1173 c -1.8762,16.777 -1.3307,37.9611 -1.125,52.9844 z" />
      <path
         style=""
         id="path5958"
         d="m 5294.959,1692.4377 c 0.6758,-6.043 11.0365,-4.125 17.1172,-4.125 l 122.1173,122.1173 c -6.0807,0 -16.4414,-1.918 -17.1172,4.125 z" />
      <path
         style=""
         id="path5960"
         d="m 5312.0762,1688.3127 c 6.9271,0 12.1758,1.5115 15.7812,4.4922 l 122.1173,122.1173 c -3.6054,-2.9807 -8.8541,-4.4922 -15.7812,-4.4922 z" />
      <path
         style=""
         id="path5962"
         d="m 5327.8574,1692.8049 c 0.3489,0.2884 0.6811,0.5903 0.9965,0.9058 l 122.1173,122.1173 c -0.3154,-0.3154 -0.6476,-0.6173 -0.9965,-0.9058 z" />
      <path
         style=""
         id="path5964"
         d="m 5328.8539,1693.7107 c 2.9469,2.9469 4.4332,7.0747 4.4332,12.4145 l 122.1173,122.1173 c 0,-5.3398 -1.4862,-9.4676 -4.4332,-12.4145 z" />
    </g>
    <path
       d="m 60.367108,986.68227 c 3.724,0 6.5105,-0.7292 8.3594,-2.1875 1.8489,-1.4843 2.7734,-3.6328 2.7734,-6.4453 0,-2.8385 -0.7812,-4.9349 -2.3437,-6.289 -1.5365,-1.3542 -3.9583,-2.0313 -7.2656,-2.0313 -9.3661,0.3577 -9.2881,16.609 -1.5235,16.9531 z m 23.3594,-9.0625 c 0,6.1459 -1.9325,10.84 -5.7812,14.10163 -3.8336,3.2488 -6.7206,4.2641 -13.8039,4.2641 -1.7318,0 -6.9169,-0.8947 -7.7586,0.6187 -1.3147,2.3639 0.4507,18.1498 0,20.3125 -0.8235,3.9516 -12.0541,4.0361 -12.1094,0 -0.2057,-15.0233 -0.7512,-36.20743 1.125,-52.98443 0.6758,-6.043 11.0365,-4.125 17.1172,-4.125 6.9271,0 12.1758,1.5115 15.7812,4.4922 3.6082,2.9829 5.4297,7.4089 5.4297,13.3203 z"
       id="path5093"
       style="font-style:normal;font-variant:normal;font-weight:bold;font-stretch:normal;font-size:medium;line-height:125%;font-family:'Noto Sans UI';-inkscape-font-specification:'Noto Sans UI Bold';letter-spacing:0px;word-spacing:0px;display:inline;opacity:1;fill:#ffffff;fill-opacity:1" />
  </g>
</svg>
